<mxfile host="app.diagrams.net" agent="Mozilla/5.0 (Windows NT 10.0; Win64; x64) AppleWebKit/537.36 (KHTML, like Gecko) Chrome/131.0.0.0 Safari/537.36" version="24.8.6">
  <diagram name="Page-1" id="_0z8RJA_iJgqiRZq9YI-">
    <mxGraphModel dx="1434" dy="772" grid="1" gridSize="10" guides="1" tooltips="1" connect="1" arrows="1" fold="1" page="1" pageScale="1" pageWidth="850" pageHeight="1100" math="0" shadow="0">
      <root>
        <mxCell id="0" />
        <mxCell id="1" parent="0" />
        <mxCell id="yT91KGNes9ikWfbtn_mg-4" value="" style="edgeStyle=orthogonalEdgeStyle;rounded=0;orthogonalLoop=1;jettySize=auto;html=1;" edge="1" parent="1" source="yT91KGNes9ikWfbtn_mg-1" target="yT91KGNes9ikWfbtn_mg-3">
          <mxGeometry relative="1" as="geometry" />
        </mxCell>
        <mxCell id="yT91KGNes9ikWfbtn_mg-1" value="Start" style="ellipse;whiteSpace=wrap;html=1;aspect=fixed;" vertex="1" parent="1">
          <mxGeometry x="80" y="40" width="80" height="80" as="geometry" />
        </mxCell>
        <mxCell id="yT91KGNes9ikWfbtn_mg-6" value="" style="edgeStyle=orthogonalEdgeStyle;rounded=0;orthogonalLoop=1;jettySize=auto;html=1;" edge="1" parent="1" source="yT91KGNes9ikWfbtn_mg-3" target="yT91KGNes9ikWfbtn_mg-5">
          <mxGeometry relative="1" as="geometry" />
        </mxCell>
        <mxCell id="yT91KGNes9ikWfbtn_mg-3" value="Publisher Splash Screen" style="rounded=1;whiteSpace=wrap;html=1;" vertex="1" parent="1">
          <mxGeometry x="220" y="50" width="120" height="60" as="geometry" />
        </mxCell>
        <mxCell id="yT91KGNes9ikWfbtn_mg-8" value="" style="edgeStyle=orthogonalEdgeStyle;rounded=0;orthogonalLoop=1;jettySize=auto;html=1;" edge="1" parent="1" source="yT91KGNes9ikWfbtn_mg-5" target="yT91KGNes9ikWfbtn_mg-7">
          <mxGeometry relative="1" as="geometry" />
        </mxCell>
        <mxCell id="yT91KGNes9ikWfbtn_mg-5" value="Developers Splash Screen" style="whiteSpace=wrap;html=1;rounded=1;" vertex="1" parent="1">
          <mxGeometry x="420" y="50" width="120" height="60" as="geometry" />
        </mxCell>
        <mxCell id="yT91KGNes9ikWfbtn_mg-10" value="" style="edgeStyle=orthogonalEdgeStyle;rounded=0;orthogonalLoop=1;jettySize=auto;html=1;" edge="1" parent="1" source="yT91KGNes9ikWfbtn_mg-7" target="yT91KGNes9ikWfbtn_mg-9">
          <mxGeometry relative="1" as="geometry" />
        </mxCell>
        <mxCell id="yT91KGNes9ikWfbtn_mg-7" value="Game Menu" style="whiteSpace=wrap;html=1;rounded=1;" vertex="1" parent="1">
          <mxGeometry x="620" y="50" width="120" height="60" as="geometry" />
        </mxCell>
        <mxCell id="yT91KGNes9ikWfbtn_mg-12" value="" style="edgeStyle=orthogonalEdgeStyle;rounded=0;orthogonalLoop=1;jettySize=auto;html=1;" edge="1" parent="1" source="yT91KGNes9ikWfbtn_mg-9" target="yT91KGNes9ikWfbtn_mg-11">
          <mxGeometry relative="1" as="geometry" />
        </mxCell>
        <mxCell id="yT91KGNes9ikWfbtn_mg-9" value="Credit&amp;nbsp; Game" style="whiteSpace=wrap;html=1;rounded=1;" vertex="1" parent="1">
          <mxGeometry x="620" y="190" width="120" height="60" as="geometry" />
        </mxCell>
        <mxCell id="yT91KGNes9ikWfbtn_mg-14" value="" style="edgeStyle=orthogonalEdgeStyle;rounded=0;orthogonalLoop=1;jettySize=auto;html=1;" edge="1" parent="1" source="yT91KGNes9ikWfbtn_mg-11" target="yT91KGNes9ikWfbtn_mg-13">
          <mxGeometry relative="1" as="geometry" />
        </mxCell>
        <mxCell id="yT91KGNes9ikWfbtn_mg-19" value="" style="edgeStyle=orthogonalEdgeStyle;rounded=0;orthogonalLoop=1;jettySize=auto;html=1;exitX=0.25;exitY=1;exitDx=0;exitDy=0;entryX=0.25;entryY=0;entryDx=0;entryDy=0;" edge="1" parent="1" source="yT91KGNes9ikWfbtn_mg-11" target="yT91KGNes9ikWfbtn_mg-18">
          <mxGeometry relative="1" as="geometry" />
        </mxCell>
        <mxCell id="yT91KGNes9ikWfbtn_mg-11" value="Gameplay" style="whiteSpace=wrap;html=1;rounded=1;" vertex="1" parent="1">
          <mxGeometry x="420" y="190" width="120" height="60" as="geometry" />
        </mxCell>
        <mxCell id="yT91KGNes9ikWfbtn_mg-16" value="" style="edgeStyle=orthogonalEdgeStyle;rounded=0;orthogonalLoop=1;jettySize=auto;html=1;" edge="1" parent="1" source="yT91KGNes9ikWfbtn_mg-13" target="yT91KGNes9ikWfbtn_mg-15">
          <mxGeometry relative="1" as="geometry" />
        </mxCell>
        <mxCell id="yT91KGNes9ikWfbtn_mg-13" value="Win/Lose&lt;div&gt;Retry/Quit&lt;/div&gt;" style="rhombus;whiteSpace=wrap;html=1;rounded=1;" vertex="1" parent="1">
          <mxGeometry x="240" y="260" width="80" height="80" as="geometry" />
        </mxCell>
        <mxCell id="yT91KGNes9ikWfbtn_mg-15" value="Game Finish" style="ellipse;whiteSpace=wrap;html=1;rounded=1;" vertex="1" parent="1">
          <mxGeometry x="60" y="190" width="80" height="80" as="geometry" />
        </mxCell>
        <mxCell id="yT91KGNes9ikWfbtn_mg-17" value="" style="endArrow=classic;html=1;rounded=0;exitX=1;exitY=0.5;exitDx=0;exitDy=0;entryX=0;entryY=1;entryDx=0;entryDy=0;" edge="1" parent="1" source="yT91KGNes9ikWfbtn_mg-13" target="yT91KGNes9ikWfbtn_mg-11">
          <mxGeometry width="50" height="50" relative="1" as="geometry">
            <mxPoint x="520" y="400" as="sourcePoint" />
            <mxPoint x="570" y="350" as="targetPoint" />
          </mxGeometry>
        </mxCell>
        <mxCell id="yT91KGNes9ikWfbtn_mg-18" value="Pause Game" style="whiteSpace=wrap;html=1;rounded=1;" vertex="1" parent="1">
          <mxGeometry x="420" y="330" width="120" height="60" as="geometry" />
        </mxCell>
        <mxCell id="yT91KGNes9ikWfbtn_mg-20" value="" style="edgeStyle=orthogonalEdgeStyle;rounded=0;orthogonalLoop=1;jettySize=auto;html=1;exitX=0.75;exitY=0;exitDx=0;exitDy=0;entryX=0.75;entryY=1;entryDx=0;entryDy=0;" edge="1" parent="1" source="yT91KGNes9ikWfbtn_mg-18" target="yT91KGNes9ikWfbtn_mg-11">
          <mxGeometry relative="1" as="geometry">
            <mxPoint x="490" y="260" as="sourcePoint" />
            <mxPoint x="490" y="340" as="targetPoint" />
          </mxGeometry>
        </mxCell>
      </root>
    </mxGraphModel>
  </diagram>
</mxfile>
